<svg xmlns="http://www.w3.org/2000/svg" fill="none" viewBox="0 0 28 28" height="28" width="28">
  <path stroke-width="1.5" stroke="currentColor" d="M7.25 12.125V17.25C7.25 18.3546 8.14543 19.25 9.25 19.25H18.75C19.8546 19.25 20.75 18.3546 20.75 17.25V12.125C20.75 11.0895 19.9105 10.25 18.875 10.25H18C17.4477 10.25 17 9.80228 17 9.25C17 8.69772 16.5523 8.25 16 8.25H12C11.4477 8.25 11 8.69772 11 9.25C11 9.80228 10.5523 10.25 10 10.25H9.125C8.08947 10.25 7.25 11.0895 7.25 12.125Z"></path>
  <circle stroke="currentColor" r="1.5" cy="15" cx="14"></circle>
</svg>