<svg xmlns="http://www.w3.org/2000/svg" viewBox="0 0 28 28" height="28" width="28">
  <path stroke-width="1.5" stroke="currentColor" d="M13.0907 6C12.059 6 11.2651 6.91179 11.2651 7.93681V9.25549L8.31641 9.25C7.49204 9.25 6.75047 9.99706 6.75047 10.8214V13.0261H7.94553C8.94526 13.0261 9.71751 13.8854 9.71751 14.9093C9.71751 15.9293 8.9489 16.7555 7.94553 16.7555H6.75047V19.4341C6.75047 20.2584 7.49204 21 8.31641 21H11.2445V19.8049C11.2445 18.8016 12.0707 18.033 13.0907 18.033C14.1146 18.033 14.9739 18.8052 14.9739 19.8049V21H17.2198C18.0441 21 18.7857 20.2584 18.7857 19.4341V16.7349H20.0632C21.0882 16.7349 22 15.941 22 14.9093C22 13.8788 21.0893 13.0467 20.0632 13.0467H18.7857V10.8214C18.7857 9.99706 18.0441 9.25549 17.2198 9.25549H14.9533V7.93681C14.9533 6.91039 14.1024 6 13.0907 6Z" clip-rule="evenodd" fill-rule="evenodd" fill="none"></path>
</svg>