<svg xmlns="http://www.w3.org/2000/svg" fill="none" viewBox="0 0 28 28" height="28" width="28">
<path stroke-width="1.5" stroke="currentColor" d="M7.75 14V19.7617C7.75 20.0378 7.97386 20.2617 8.25 20.2617H11.5C11.7761 20.2617 12 20.0378 12 19.7617V17.0429C12 16.5429 12.8 15.5429 14 15.5429C15.2 15.5429 16 16.5429 16 17.0429V19.7617C16 20.0378 16.2239 20.2617 16.5 20.2617H19.75C20.0261 20.2617 20.25 20.0378 20.25 19.7617V14C20.25 13.8674 20.1973 13.7402 20.1036 13.6465L14.3536 7.89646C14.1583 7.7012 13.8417 7.7012 13.6464 7.89646L7.89645 13.6465C7.80268 13.7402 7.75 13.8674 7.75 14Z"></path>
</svg>