<svg xmlns="http://www.w3.org/2000/svg" fill="none" viewBox="0 0 28 28" height="28" width="28">
  <g style="opacity: var(--displayImagesCached)">
    <path fill="currentColor" d="M13 16L11 14L7.5 18.5L8.5 19H19.5L20.5 18.5L16 12L13 16Z" opacity="0.3"></path>
    <path stroke-width="1.5" stroke="currentColor" d="M7.75 10.75C7.75 9.64543 8.64543 8.75 9.75 8.75H18.25C19.3546 8.75 20.25 9.64543 20.25 10.75V17.25C20.25 18.3546 19.3546 19.25 18.25 19.25H9.75C8.64543 19.25 7.75 18.3546 7.75 17.25V10.75Z"></path>
    <path fill="var(--colorWarningBg)" d="M18 22C20.2091 22 22 20.2091 22 18C22 15.7909 20.2091 14 18 14C15.7909 14 14 15.7909 14 18C14 20.2091 15.7909 22 18 22Z"></path>
    <path fill="var(--colorWarningFg)" d="M17 16H18V18H20V19H17V16Z"></path>
  </g>
  <g style="opacity: var(--displayImagesAll)">
    <path fill="currentColor" d="M13 16L11 14L7.5 18.5L8.5 19H19.5L20.5 18.5L16 12L13 16Z"></path>
    <path stroke-width="1.5" stroke="currentColor" d="M7.75 10.75C7.75 9.64543 8.64543 8.75 9.75 8.75H18.25C19.3546 8.75 20.25 9.64543 20.25 10.75V17.25C20.25 18.3546 19.3546 19.25 18.25 19.25H9.75C8.64543 19.25 7.75 18.3546 7.75 17.25V10.75Z"></path>
  </g>
  <g style="opacity: var(--displayImagesNever)">
    <path fill="currentColor" d="M9 9.5H19C19.2761 9.5 19.5 9.72386 19.5 10V17.0556L16 12L13 16L11 14L8.5 17.2143V10C8.5 9.72386 8.72386 9.5 9 9.5ZM7 10C7 8.89543 7.89543 8 9 8H19C20.1046 8 21 8.89543 21 10V18C21 19.1046 20.1046 20 19 20H9C7.89543 20 7 19.1046 7 18V10Z" clip-rule="evenodd" fill-rule="evenodd" opacity="0.3"></path>
    <path fill="var(--colorErrorBg)" d="M18 22C20.2091 22 22 20.2091 22 18C22 15.7909 20.2091 14 18 14C15.7909 14 14 15.7909 14 18C14 20.2091 15.7909 22 18 22Z"></path>
    <path fill="var(--colorErrorFg)" d="M20 17.25H16V18.75H20V17.25Z"></path>
  </g>
  <g style="opacity: var(--displayAnimationNever)">
    <path fill="var(--colorErrorBg)" d="M10 14C12.2091 14 14 12.2091 14 10C14 7.79086 12.2091 6 10 6C7.79086 6 6 7.79086 6 10C6 12.2091 7.79086 14 10 14Z"></path>
  <g>
    <path fill="var(--colorErrorFg)" d="M8 8H9.5V12H8V8Z"></path>
    <path fill="var(--colorErrorFg)" d="M10.5 8H12V12H10.5V8Z"></path>
  </g>
  </g>
  <g style="opacity: var(--displayAnimationOnce)">
    <path fill="var(--colorWarningBg)" d="M10 14C12.2091 14 14 12.2091 14 10C14 7.79086 12.2091 6 10 6C7.79086 6 6 7.79086 6 10C6 12.2091 7.79086 14 10 14Z"></path>
    <path fill="var(--colorWarningFg)" d="M9 7V13L12 10L9 7Z"></path>
  </g>
</svg>