<svg xmlns="http://www.w3.org/2000/svg" fill="none" viewBox="0 0 28 28" height="28" width="28">
  <path fill="currentColor" d="M11 17H13.5333L19.5226 10.9687L16.9913 8.56249L11 14.4667V17ZM21.8 8.66667C22.0667 8.4 22.0667 8 21.8 7.73333L20.2667 6.2C20 5.93333 19.6 5.93333 19.3333 6.2L18.1333 7.4L20.6667 9.93333L21.8 8.66667Z" clip-rule="evenodd" fill-rule="evenodd"></path>
  <path fill="currentColor" d="M15.5 7.5H10.2522C8.73345 7.5 7.50224 8.73122 7.50224 10.25V17.75C7.50224 19.2688 8.73345 20.5 10.2522 20.5H15.814C17.3328 20.5 18.564 19.2688 18.564 17.75V14.436L17.064 15.936V17.75C17.064 18.4404 16.5044 19 15.814 19H10.2522C9.56188 19 9.00224 18.4404 9.00224 17.75V10.25C9.00224 9.55964 9.56188 9 10.2522 9H14L15 8L15.5 7.5Z" clip-rule="evenodd" fill-rule="evenodd"></path>
</svg>