<svg xmlns="http://www.w3.org/2000/svg" fill="none" viewBox="0 0 28 28" height="28" width="28">
  <path stroke-width="1.5" stroke="currentColor" d="M9.25 11V18.75C9.25 19.8546 10.1454 20.75 11.25 20.75H16.75C17.8546 20.75 18.75 19.8546 18.75 18.75V11"></path>
  <path fill="currentColor" d="M18 8C17.7239 8 17.5 7.77614 17.5 7.5C17.5 7.22386 17.2761 7 17 7H11C10.7239 7 10.5 7.22386 10.5 7.5C10.5 7.77614 10.2761 8 10 8H8.5C7.94772 8 7.5 8.19772 7.5 8.75C7.5 9.30228 7.94772 9.5 8.5 9.5H19.5C20.0523 9.5 20.5 9.30228 20.5 8.75C20.5 8.19772 20.0523 8 19.5 8H18Z"></path>
  <line stroke-linecap="round" stroke-width="1.5" stroke="currentColor" y2="17.25" x2="12.25" y1="11.75" x1="12.25" opacity="0.35"></line>
  <line stroke-linecap="round" stroke-width="1.5" stroke="currentColor" y2="17.25" x2="15.75" y1="11.75" x1="15.75" opacity="0.35"></line>
</svg>