<svg xmlns="http://www.w3.org/2000/svg" fill="none" viewBox="0 0 28 28" height="28" width="28">
  <path fill="currentColor" d="M12.2929 8.29289L13.7071 9.70711C13.8946 9.89464 14.149 10 14.4142 10H19C20.1046 10 21 10.8954 21 12V18C21 19.1046 20.1046 20 19 20H9C7.89543 20 7 19.1046 7 18V10C7 8.89543 7.89543 8 9 8H11.5858C11.851 8 12.1054 8.10536 12.2929 8.29289ZM19 15L16 12V14H12.5C12.2239 14 12 14.2239 12 14.5V15.5C12 15.7761 12.2239 16 12.5 16H16V18L19 15Z" clip-rule="evenodd" fill-rule="evenodd"></path>
</svg>