<svg xmlns="http://www.w3.org/2000/svg" fill="none" viewBox="0 0 28 28" height="28" width="28">
<path fill="currentColor" d="M20.929 12.9999L20.9999 12.9999L20.9999 8.20698C20.9999 7.76153 20.4614 7.53845 20.1464 7.85343L18.9497 9.05015C17.6829 7.78341 15.9329 6.99991 13.9999 6.99991C10.4734 6.99991 7.55602 9.60764 7.07081 13L8.5906 13C9.06084 10.4398 11.3038 8.49991 13.9999 8.49991C15.5187 8.49991 16.8937 9.11551 17.889 10.1108L15.8535 12.1463C15.5385 12.4613 15.7616 12.9999 16.207 12.9999L19.4092 12.9999C19.4092 12.9999 19.4092 12.9999 19.4092 13L20.929 13C20.929 12.9999 20.929 12.9999 20.929 12.9999ZM11.7928 14.9999L6.99993 14.9999L6.99993 19.7928C6.99993 20.2382 7.5385 20.4613 7.85348 20.1463L9.05016 18.9496C10.3169 20.2164 12.0669 20.9999 13.9999 20.9999C17.5264 20.9999 20.4438 18.3922 20.929 15L19.4092 15C18.939 17.5601 16.696 19.4999 13.9999 19.4999C12.4811 19.4999 11.1061 18.8843 10.1108 17.889L12.1464 15.8534C12.4614 15.5384 12.2383 14.9999 11.7928 14.9999Z" clip-rule="evenodd" fill-rule="evenodd"></path>
</svg>