<svg xmlns="http://www.w3.org/2000/svg" fill="none" viewBox="0 0 28 28" height="28" width="28">
<path fill="currentColor" d="M9 7H14.6972L14.7173 7.00161C14.9592 7.01527 15.1782 7.11495 15.344 7.27055L15.4376 7.36609C15.8458 8.02551 16.0789 8.40484 16.1369 8.50409C16.3105 8.80127 16.632 9 17 9C17.0344 9 18.0344 9 20 9V15C20 15.5128 19.614 15.9355 19.1166 15.9933L15 16L14.8834 15.9933C14.5973 15.96 14.348 15.8061 14.1879 15.5836L13.5298 14.5341C13.3653 14.2072 13.0268 13.983 12.636 13.983L11 14C10.4872 14 10.0645 14.386 10.0067 14.8834L10 15V20C10 20.5523 9.55228 21 9 21C8.48717 21 8.06449 20.614 8.00673 20.1166L8 20V8C8 7.48717 8.38604 7.06449 8.88338 7.00673L9 7Z"></path>
</svg>