<svg xmlns="http://www.w3.org/2000/svg" fill="none" viewBox="0 0 28 28" height="28" width="28">
<path fill="currentColor" d="M14.9932 9.00685C14.9977 8.97012 15 8.93271 15 8.89474C15 8.40059 14.6056 8 14.119 8C13.8519 8 13.6125 8.12078 13.4509 8.31152C13.4295 8.32738 13.4091 8.3451 13.3898 8.36469L8.66111 13.3088C8.29135 13.6954 8.29135 14.3046 8.66111 14.6912L13.3898 19.6353C13.4091 19.6549 13.4296 19.6727 13.4509 19.6885C13.6125 19.8792 13.8519 20 14.119 20C14.6056 20 15 19.5994 15 19.1053C15 19.0673 14.9977 19.0299 14.9932 18.9932L15 19V9L14.9932 9.00685Z" clip-rule="evenodd" fill-rule="evenodd"></path>
<path fill="currentColor" d="M21 17.5C21 14.1863 18.3137 12 15 12H14V16H15.8571C17.8853 16 19.6392 17.174 20.4764 18.8794C20.7883 18.7101 21 17.8798 21 17.5Z"></path>
</svg>