<svg xmlns="http://www.w3.org/2000/svg" fill="none" viewBox="0 0 28 28" height="28" width="28">
<path fill="currentColor" d="M16 19.1053C16 19.5994 15.6056 20 15.119 20C14.8519 20 14.6125 19.8792 14.4509 19.6885C14.4296 19.6727 14.4091 19.6549 14.3898 19.6353L9.66111 14.6912C9.29135 14.3046 9.29135 13.6954 9.66111 13.3088L14.3898 8.36469C14.4091 8.3451 14.4295 8.32738 14.4509 8.31152C14.6125 8.12078 14.8519 8 15.119 8C15.6056 8 16 8.40059 16 8.89474V12H16.0001C19.3138 12 22.0001 14.1863 22.0001 17.5C22.0001 17.8798 21.7883 18.7101 21.4765 18.8794C20.6392 17.174 18.8853 16 16.8572 16H16V19.1053Z" clip-rule="evenodd" fill-rule="evenodd"></path>
<path fill="currentColor" d="M12 8.89474C12 9.08695 11.9417 9.26501 11.8425 9.41084C11.8422 9.42654 11.8285 9.44896 11.7975 9.48116L8.16676 13.2557C7.77134 13.6668 7.77135 14.3332 8.16676 14.7443L11.7046 18.4223L11.7034 18.4295C11.8851 18.5935 12 18.8355 12 19.1053C12 19.5994 11.6147 20 11.1393 20C10.8784 20 10.6445 19.8792 10.4867 19.6885C10.4658 19.6727 10.4458 19.6549 10.427 19.6353L6.56517 15.459C5.81161 14.6441 5.81161 13.3559 6.56517 12.541L10.427 8.36469C10.4458 8.3451 10.4658 8.32738 10.4866 8.31152C10.6445 8.12078 10.8783 8 11.1393 8C11.6147 8 12 8.40059 12 8.89474Z" opacity="0.5"></path>
</svg>