<svg width="28" height="28" viewBox="0 0 28 28" fill="none" xmlns="http://www.w3.org/2000/svg">
<path d="M7.25 9.7929V8.25001C7.25 7.69772 7.69771 7.25001 8.25 7.25001L19.75 7.25C20.3023 7.25 20.75 7.69772 20.75 8.25V9.7929C20.75 9.92551 20.6973 10.0527 20.6036 10.1465L19.8707 10.8793C19.7924 10.9576 19.7424 11.0595 19.7283 11.1693L18.6119 19.8772C18.5479 20.3762 18.1231 20.75 17.62 20.75H10.38C9.87686 20.75 9.45208 20.3762 9.3881 19.8772L8.2717 11.1693C8.25763 11.0595 8.20756 10.9576 8.12932 10.8793L7.39645 10.1465C7.30268 10.0527 7.25 9.92551 7.25 9.7929Z" stroke="currentColor" stroke-width="1.5" stroke-linecap="round"></path>
<path d="M11.5 15.5L14 13.5L16.5 15.5" stroke="currentColor" stroke-linecap="round"></path>
<path d="M8 10.5L20 10.5" stroke="currentColor" stroke-linecap="round"></path>
</svg>