<svg xmlns="http://www.w3.org/2000/svg" fill="none" viewBox="0 0 28 28" height="28" width="28">
<path fill="currentColor" d="M13.0068 9.00685C13.0023 8.97012 13 8.93271 13 8.89474C13 8.40059 13.3944 8 13.881 8C14.1482 8 14.3876 8.12078 14.5491 8.31152C14.5705 8.32738 14.5909 8.3451 14.6102 8.36469L19.3389 13.3088C19.7087 13.6954 19.7087 14.3046 19.3389 14.6912L14.6102 19.6353C14.5909 19.6549 14.5705 19.6727 14.5491 19.6885C14.3875 19.8792 14.1482 20 13.881 20C13.3944 20 13 19.5994 13 19.1053C13 19.0673 13.0023 19.0299 13.0068 18.9932L13 19V9L13.0068 9.00685Z"></path>
<rect fill="currentColor" rx="1" height="4" width="8" y="12" x="8"></rect>
</svg>