<svg xmlns="http://www.w3.org/2000/svg" fill="none" viewBox="0 0 28 28" height="28" width="28">
  <path fill="currentColor" d="M16.3368 8H8.75C7.23122 8 6 9.23122 6 10.75V17.25C6 18.7688 7.23122 20 8.75 20H19.25C20.7688 20 22 18.7688 22 17.25V11.9495C21.5902 12.3678 21.0762 12.6836 20.5 12.8551V17.25C20.5 17.9404 19.9404 18.5 19.25 18.5H8.75C8.05965 18.5 7.5 17.9404 7.5 17.25V10.75C7.5 10.7359 7.50023 10.7218 7.5007 10.7078L13.6464 16.8536L14 17.2071L14.3536 16.8536L18.3876 12.8195C18.0503 12.7066 17.736 12.5436 17.4533 12.3396L14 15.7929L7.97572 9.76861C8.18863 9.6004 8.45759 9.5 8.75 9.5H16C16 8.9632 16.1208 8.45463 16.3368 8Z" clip-rule="evenodd" fill-rule="evenodd"></path>
  <circle fill="currentColor" r="2.5" cy="9.5" cx="19.5"></circle>
</svg>