<svg fill="none" height="28" width="28" xmlns="http://www.w3.org/2000/svg">
  <path d="M9.25 12s-.454 2.411-.5 4c-.027.952.102 2.161.236 3.12.132.95.957 1.63 1.915 1.63h6.174c.969 0 1.8-.695 1.926-1.656.125-.943.249-2.126.249-3.094 0-1.943-.5-5-.5-5" stroke-width="1.5" stroke="currentColor"></path>
  <path d="M17.896 7.31a.5.5 0 0 1-.58-.406.5.5 0 0 0-.579-.406L10.83 7.54a.5.5 0 0 0-.406.58.5.5 0 0 1-.406.578l-1.477.26c-.544.097-.95.37-.854.913.095.544.57.661 1.115.565l10.833-1.91c.543-.096.95-.368.854-.912-.096-.544-.571-.661-1.115-.565l-1.477.26Z" fill="currentColor"></path>
  <path opacity=".35" d="M12.25 12.75v4.5M15.75 11.75v5.5" stroke-width="1.5" stroke-linecap="round" stroke="currentColor"></path>
</svg>