<svg xmlns="http://www.w3.org/2000/svg" fill="none" viewBox="0 0 28 28" height="28" width="28">
<circle fill="currentColor" r="1.75" cy="17.25" cx="10.75"></circle>
<path fill="currentColor" d="M19.1818 19C19.6504 19 20.0337 18.6196 19.9977 18.1523C19.9084 16.9941 19.6366 15.8554 19.1906 14.7789C18.6363 13.4406 17.8238 12.2247 16.7996 11.2004C15.7753 10.1762 14.5594 9.36368 13.2211 8.80936C12.1446 8.36345 11.0059 8.09162 9.84766 8.00235C9.38044 7.96634 9 8.34961 9 8.81821V8.90503C9 9.37363 9.38067 9.74947 9.8473 9.79241C10.7711 9.87742 11.6784 10.1011 12.5385 10.4574C13.6603 10.922 14.6796 11.6031 15.5383 12.4617C16.3969 13.3204 17.078 14.3397 17.5426 15.4615C17.8989 16.3216 18.1226 17.2289 18.2076 18.1527C18.2505 18.6193 18.6264 19 19.095 19H19.1818Z"></path>
<path fill="currentColor" d="M15.7879 19C16.2565 19 16.6412 18.619 16.5893 18.1533C16.5098 17.4411 16.3303 16.7423 16.0551 16.0777C15.6713 15.1512 15.1088 14.3094 14.3997 13.6003C13.6906 12.8912 12.8488 12.3287 11.9223 11.9449C11.2577 11.6697 10.5589 11.4902 9.84674 11.4107C9.38103 11.3588 9 11.7435 9 12.2121V12.2828C9 12.7514 9.38182 13.125 9.84554 13.1925C10.3254 13.2624 10.7958 13.3916 11.2459 13.578C11.9579 13.8729 12.6049 14.3052 13.1498 14.8502C13.6948 15.3951 14.1271 16.0421 14.422 16.7541C14.6084 17.2042 14.7376 17.6746 14.8075 18.1545C14.875 18.6182 15.2486 19 15.7172 19H15.7879Z"></path>
</svg>