<svg xmlns="http://www.w3.org/2000/svg" fill="none" viewBox="0 0 28 28" height="28" width="28">
<path stroke-width="1.5" stroke="currentColor" d="M7.75 14C7.75 11.9012 7.75 10.8518 8.13404 10.0398C8.52971 9.20321 9.20321 8.52971 10.0398 8.13404C10.8518 7.75 11.9012 7.75 14 7.75V7.75C16.0988 7.75 17.1482 7.75 17.9602 8.13404C18.7968 8.52971 19.4703 9.20321 19.866 10.0398C20.25 10.8518 20.25 11.9012 20.25 14V14C20.25 16.0988 20.25 17.1482 19.866 17.9602C19.4703 18.7968 18.7968 19.4703 17.9602 19.866C17.1482 20.25 16.0988 20.25 14 20.25V20.25C11.9012 20.25 10.8518 20.25 10.0398 19.866C9.20321 19.4703 8.52971 18.7968 8.13404 17.9602C7.75 17.1482 7.75 16.0988 7.75 14V14Z"></path>
<line stroke-linecap="round" stroke="currentColor" y2="14.5" x2="13.5" y1="10.5" x1="13.5"></line>
<line stroke-linecap="round" stroke-width="1.5" stroke="currentColor" y2="16.4393" x2="15.75" y1="14.5" x1="13.8107"></line>
</svg>