<svg xmlns="http://www.w3.org/2000/svg" fill="none" viewBox="0 0 28 28" height="28" width="28">
<path stroke-width="1.5" stroke="currentColor" d="M13.3534 15.3362L12.6964 15.8549L13.2839 16.4512L15.5566 18.7581C15.7104 18.9142 15.8954 19.186 16.0431 19.4859C16.1147 19.6312 16.1701 19.7682 16.2062 19.8835C16.2241 19.9407 16.2358 19.9877 16.2427 20.024C16.2492 20.0586 16.2499 20.0755 16.25 20.0772C16.25 20.0773 16.25 20.0773 16.25 20.0772C16.25 20.1856 16.2178 20.2178 16.2158 20.2198L16.2157 20.2199L16.2157 20.2199C16.2148 20.2209 16.1885 20.25 16.0909 20.25H7.90909C7.81154 20.25 7.78522 20.2209 7.7843 20.2199L7.78427 20.2199L7.78421 20.2198C7.78223 20.2178 7.75 20.1856 7.75 20.0772C7.75 19.4799 7.99815 19.21 8.44336 18.7581L10.7161 16.4512L11.3036 15.8549L10.6466 15.3362C9.99428 14.8212 9.56818 14.0167 9.56818 13.1565V12.2338C9.56818 10.8116 10.7598 9.68347 12.1428 9.75309C13.4047 9.82109 14.4318 10.9936 14.4318 12.4183V13.1565C14.4318 14.0167 14.0057 14.8212 13.3534 15.3362Z"></path>
<path fill="currentColor" d="M10.9453 14.75L11.56 15.0414C11.8377 15.1731 12.1606 15.1697 12.4356 15.0322L13 14.75V17H11L10.9453 14.75Z"></path>
<path fill="currentColor" d="M16.1383 15.157C16.4859 14.4232 16.6899 13.6266 16.6899 12.83V12.1124C16.6899 10.5643 16.0335 9.16461 15 8.22087C15.4202 7.42507 15.862 7 17.1209 7C18.4139 7 19.2759 8.166 19.2759 9.2423V10.1392C19.2759 11.0361 18.845 11.4846 18.414 11.933L20.138 13.7269C20.569 14.1753 21 14.6238 21 15.0723C21 15.5207 20.569 15.9692 20.138 16H16.9485L16.1383 15.157Z" opacity="0.5"></path>
</svg>