<svg xmlns="http://www.w3.org/2000/svg" fill="none" viewBox="0 0 28 28" height="28" width="28">
  <path stroke-width="1.5" stroke="currentColor" d="M6.75 9.25C6.75 8.42157 7.42157 7.75 8.25 7.75H19.75C20.5784 7.75 21.25 8.42157 21.25 9.25V18.75C21.25 19.5784 20.5784 20.25 19.75 20.25H8.25C7.42157 20.25 6.75 19.5784 6.75 18.75V9.25Z"></path>
  <path fill="currentColor" d="M8.5 11.5C8.5 11.2239 8.72386 11 9 11H10.5C10.7761 11 11 11.2239 11 11.5C11 11.7761 10.7761 12 10.5 12H9C8.72386 12 8.5 11.7761 8.5 11.5ZM8.5 13.5C8.5 13.2239 8.72386 13 9 13H10.5C10.7761 13 11 13.2239 11 13.5C11 13.7761 10.7761 14 10.5 14H9C8.72386 14 8.5 13.7761 8.5 13.5ZM9 15C8.72386 15 8.5 15.2239 8.5 15.5C8.5 15.7761 8.72386 16 9 16H10.5C10.7761 16 11 15.7761 11 15.5C11 15.2239 10.7761 15 10.5 15H9Z" clip-rule="evenodd" fill-rule="evenodd" opacity="0.35"></path>
  <line stroke-width="1.5" stroke="currentColor" y2="20" x2="12.75" y1="8" x1="12.75"></line>
</svg>