<svg xmlns="http://www.w3.org/2000/svg" fill="none" viewBox="0 0 28 28" height="28" width="28">
<path stroke-width="1.2" stroke="currentColor" d="M14.3 5.86603L20.8942 9.6732C21.0799 9.78038 21.1942 9.97846 21.1942 10.1928V17.8072C21.1942 18.0215 21.0799 18.2196 20.8942 18.3268L14.3 22.134C14.1144 22.2412 13.8856 22.2412 13.7 22.134L7.10577 18.3268C6.92013 18.2196 6.80577 18.0215 6.80577 17.8072V10.1928C6.80577 9.97846 6.92013 9.78038 7.10577 9.6732L13.7 5.86603C13.8856 5.75885 14.1144 5.75885 14.3 5.86603Z"></path>
<path stroke-width="1.2" stroke="currentColor" d="M14.3 8.86603L18.2962 11.1732C18.4818 11.2804 18.5962 11.4785 18.5962 11.6928V16.3072C18.5962 16.5215 18.4818 16.7196 18.2962 16.8268L14.3 19.134C14.1144 19.2412 13.8856 19.2412 13.7 19.134L9.70385 16.8268C9.51821 16.7196 9.40385 16.5215 9.40385 16.3072V11.6928C9.40385 11.4785 9.51821 11.2804 9.70385 11.1732L13.7 8.86603C13.8856 8.75885 14.1144 8.75885 14.3 8.86603Z"></path>
</svg>