<svg xmlns="http://www.w3.org/2000/svg" fill="none" viewBox="0 0 28 28" height="28" width="28">
  <path stroke-width="1.5" stroke="currentColor" d="M19.25 14.5v.335l.25.224 1.622 1.452-1.334 2.187-1.685-.663-.38-.15-.332.238c-.41.294-.823.494-1.3.721l-.353.17-.063.385-.306 1.851h-2.635l-.416-1.89-.079-.357-.33-.159c-.477-.227-.89-.427-1.3-.721l-.332-.238-.38.15-1.685.663-1.321-2.167 1.498-1.147.295-.225v-2.318l-.295-.225-1.498-1.147 1.32-2.167 1.686.663.304.12.294-.14c.268-.129.528-.285.755-.42l.013-.008a8.21 8.21 0 0 1 .646-.362l.352-.168.064-.386.306-1.851h2.62l.306 1.851.064.386.352.168c.477.228.89.428 1.3.722l.332.238.38-.15 1.685-.663 1.324 2.17-1.458 1.15-.286.225V14.5z"></path>
  <circle stroke="currentColor" r="1.5" cy="14" cx="14"></circle>
</svg>